# xmcd CD database file
#
# Track frame offsets:
#	150
#	6945
#	24717
#	43202
#	60979
#	80990
#	100474
#	117808
#	136395
#	141763
#	179106
#	208701
#	230111
#
# Disc length: 3430 seconds
#
# Revision: 0
# Processed by: cddbd v1.4PL0 Copyright (c) Steve Scherf et al.
# Submitted via: Feurio! 1.65 - http://www.feurio.com
#
DISCID=c40d640d
DTITLE=Montell Jordan - MJ V
DYEAR=1900
DGENRE=blues
TTITLE0=MJ V Intro
TTITLE1=Montell Jordan/Feat. WC - MJ Anthem 
TTITLE2=You're The Right One
TTITLE3=You Must Have Been
TTITLE4=Can't Take It No More
TTITLE5=Montell Jordan/Feat. Case - Coulda Woulda Shoulda
TTITLE6=Tasty
TTITLE7=Mine Mine Mine
TTITLE8=Top Or Bottom
TTITLE9=Why Can't We
TTITLE10=The Rain
TTITLE11=Are You With Me
TTITLE12=Montell Jordan/Feat. Bishop Eddie Long - The You In Me
EXTD=
EXTT0=
EXTT1=
EXTT2=
EXTT3=
EXTT4=
EXTT5=
EXTT6=
EXTT7=
EXTT8=
EXTT9=
EXTT10=
EXTT11=
EXTT12=
PLAYORDER=
